<svg width="27" height="28" viewBox="0 0 27 28" fill="none" xmlns="http://www.w3.org/2000/svg">
<path d="M5 5C2.79086 5 1 6.79086 1 9V17.5862C1 19.8154 2.82236 21.6145 5.05143 21.5858L5.16667 21.5844V25.2681C5.16667 25.9485 5.7182 26.5 6.39855 26.5C6.77936 26.5 7.13877 26.3239 7.3721 26.0229L10.8216 21.5737L18.9816 21.6112C21.1979 21.6213 23 19.8275 23 17.6112V9C23 6.79086 21.2091 5 19 5H5Z" stroke="#645BA3" stroke-width="2"/>
<rect x="5" y="10" width="14" height="2" rx="1" fill="#645BA3"/>
<rect x="7" y="14" width="10" height="2" rx="1" fill="#645BA3"/>
<circle cx="22" cy="5" r="5" fill="#E81F54"/>
</svg>
